<?xml version="1.0" standalone="no"?>
<!DOCTYPE svg PUBLIC "-//W3C//DTD SVG 20010904//EN"
 "http://www.w3.org/TR/2001/REC-SVG-20010904/DTD/svg10.dtd">
<svg version="1.0" xmlns="http://www.w3.org/2000/svg"
 width="1000.000000pt" height="1000.000000pt" viewBox="0 0 1000.000000 1000.000000"
 preserveAspectRatio="xMidYMid meet">
<metadata>
Created by potrace 1.11, written by Peter Selinger 2001-2013
</metadata>
<g transform="translate(0.000000,1000.000000) scale(0.100000,-0.100000)"
fill="#000000" stroke="none">
<path d="M4868 8995 c-2 -2 -28 -6 -58 -10 -186 -22 -424 -120 -585 -240 -84
-63 -194 -172 -263 -260 -64 -83 -147 -236 -201 -372 -22 -54 -46 -95 -70
-118 -37 -37 -57 -50 -336 -220 -356 -216 -478 -298 -551 -370 -119 -117 -172
-228 -189 -390 -14 -136 -64 -212 -205 -310 -193 -135 -517 -385 -694 -536
-154 -131 -174 -185 -113 -301 66 -125 63 -121 222 -293 116 -125 411 -424
440 -446 119 -88 237 -159 265 -159 5 0 -1 26 -12 58 -12 31 -23 93 -26 137
-7 138 45 253 178 385 136 136 302 235 445 266 108 23 290 27 395 9 56 -10
171 -51 218 -78 211 -120 278 -383 159 -626 -38 -80 -176 -222 -282 -293 -160
-105 -350 -199 -435 -214 -122 -21 -253 7 -369 80 -42 27 -56 32 -47 18 3 -5
8 -24 11 -43 3 -19 11 -52 16 -74 6 -22 12 -47 14 -55 9 -45 83 -246 118 -320
69 -147 251 -430 276 -430 4 0 20 28 36 62 64 139 184 290 313 396 146 120
751 452 1097 602 329 142 482 245 600 402 79 106 141 260 160 398 6 49 7 223
1 280 -2 19 -7 75 -11 124 -4 50 -8 97 -10 105 -1 9 -6 59 -9 111 -6 75 -4 99
7 114 14 19 16 17 42 -35 15 -29 42 -74 60 -99 88 -123 136 -246 170 -435 6
-36 7 -210 1 -245 -3 -14 -7 -43 -11 -65 -30 -203 -143 -421 -299 -577 -121
-122 -249 -201 -546 -339 -604 -280 -898 -448 -1053 -601 -130 -130 -227 -299
-277 -481 -15 -59 -28 -108 -28 -110 0 -1 -3 -38 -7 -82 -32 -337 53 -688 220
-905 49 -64 135 -145 203 -192 l45 -31 -7 79 c-3 43 -10 108 -15 144 -36 275
57 570 253 805 214 256 501 432 888 544 137 40 278 68 278 56 0 -24 -45 -63
-223 -197 -308 -230 -443 -352 -573 -518 -308 -394 -384 -891 -213 -1406 64
-195 150 -336 294 -480 101 -102 265 -222 286 -209 14 9 7 51 -25 150 -14 44
-28 94 -31 110 -30 157 -37 216 -37 315 0 138 4 166 37 295 86 336 360 667
790 953 173 115 289 177 815 438 376 186 567 293 808 450 400 263 692 531 885
816 30 46 61 95 68 111 7 15 16 27 21 27 4 0 8 5 8 10 0 6 20 52 45 103 67
139 132 340 150 462 3 23 7 51 10 63 26 140 26 453 -1 647 -19 132 -108 403
-161 487 -12 21 -23 40 -23 43 0 3 -21 37 -46 77 -153 239 -377 443 -674 615
-139 80 -183 102 -325 158 -361 144 -737 200 -1155 172 -165 -11 -245 -28
-460 -100 -174 -57 -174 -56 5 -72 44 -4 94 -9 110 -11 17 -1 64 -5 105 -9 41
-3 91 -7 110 -10 19 -2 60 -7 90 -10 159 -17 389 -81 535 -151 204 -96 396
-249 519 -414 23 -30 44 -56 49 -58 4 -2 7 -7 7 -12 0 -4 19 -39 41 -76 178
-293 254 -718 194 -1091 -9 -57 -15 -83 -42 -163 -86 -265 -263 -489 -521
-664 -45 -31 -84 -56 -86 -56 -2 0 -36 -18 -77 -41 -41 -22 -124 -60 -185 -85
-102 -40 -140 -49 -154 -33 -3 3 36 36 85 74 244 184 390 341 503 539 46 79
104 218 116 278 3 13 12 51 20 84 43 176 41 438 -5 624 -121 486 -481 877
-949 1030 -51 17 -104 32 -119 35 -14 3 -37 7 -51 10 -103 21 -345 28 -485 13
-38 -5 -99 -10 -135 -14 -36 -3 -75 -7 -87 -9 -12 -2 -57 -7 -100 -10 -43 -4
-80 -9 -82 -11 -2 -2 -9 4 -16 13 -10 13 -1 30 59 106 90 115 160 185 250 251
272 200 572 295 921 290 66 -1 143 -4 170 -8 47 -6 68 -9 138 -20 15 -3 35 -7
45 -10 9 -3 28 -7 42 -10 162 -29 450 -133 725 -261 175 -82 319 -144 300
-129 -11 8 -65 59 -120 113 -237 231 -468 412 -722 565 -201 120 -534 252
-738 292 -11 2 -42 8 -70 14 -216 44 -528 49 -718 11 -326 -66 -569 -214 -801
-489 -43 -51 -79 -92 -81 -92 -12 0 34 129 77 217 53 107 106 181 193 269 87
87 164 143 274 199 69 34 228 92 281 102 14 2 45 9 70 14 127 29 463 31 543 4
6 -2 30 -7 51 -10 113 -16 368 -95 524 -162 57 -24 200 -91 319 -148 118 -58
217 -105 220 -105 18 0 -101 127 -193 206 -352 301 -756 510 -1194 616 -103
24 -109 26 -240 48 -90 15 -400 26 -412 15z m-1209 -1982 c-141 -143 -192
-199 -261 -287 -139 -175 -213 -236 -327 -270 -69 -20 -114 -20 -156 0 -84 40
-53 151 81 289 93 97 167 136 400 214 184 61 326 120 338 140 4 6 10 11 14 11
4 0 -37 -44 -89 -97z"/>
</g>
</svg>
